<?xml version="1.0" standalone="no"?>
<!DOCTYPE svg PUBLIC "-//W3C//DTD SVG 20010904//EN"
 "http://www.w3.org/TR/2001/REC-SVG-20010904/DTD/svg10.dtd">
<svg version="1.0" xmlns="http://www.w3.org/2000/svg"
 width="1920.000000pt" height="1080.000000pt" viewBox="0 0 1920.000000 1080.000000"
 preserveAspectRatio="xMidYMid meet">

<g transform="translate(0.000000,1080.000000) scale(0.100000,-0.100000)"
fill="#000000" stroke="none">
<path d="M0 5400 l0 -5400 9600 0 9600 0 0 5400 0 5400 -9600 0 -9600 0 0
-5400z m8490 1631 c416 -52 610 -180 687 -451 17 -60 18 -114 18 -705 0 -577
-2 -646 -17 -703 -57 -206 -183 -322 -413 -381 -196 -51 -247 -54 -972 -58
l-683 -5 0 1155 c0 634 3 1157 8 1161 12 13 1264 0 1372 -13z m1720 -941 l0
-960 568 -2 567 -3 3 -197 2 -198 -850 0 -850 0 0 1160 0 1160 280 0 280 0 0
-960z m2060 88 c0 -609 3 -885 11 -913 16 -58 81 -119 149 -139 94 -28 275
-40 410 -27 139 13 213 37 259 85 62 64 61 41 61 998 l0 868 280 0 280 0 0
-882 c0 -980 1 -961 -66 -1097 -42 -86 -129 -178 -217 -230 -81 -47 -231 -97
-372 -122 -146 -26 -491 -31 -645 -10 -404 56 -637 223 -695 499 -12 55 -15
224 -15 955 l0 887 280 0 280 0 0 -872z m2649 492 c134 -209 246 -380 250
-380 4 0 117 171 250 380 l243 380 320 0 c204 0 318 -4 316 -10 -1 -5 -184
-261 -406 -569 l-403 -560 410 -564 c225 -311 417 -576 426 -591 l17 -26 -323
0 -324 0 -260 405 c-143 223 -262 405 -265 405 -3 0 -122 -181 -266 -403
l-261 -402 -321 -3 c-177 -1 -322 0 -322 2 0 3 187 264 415 581 229 316 418
581 421 589 3 8 -162 246 -393 567 -220 305 -402 560 -407 567 -6 9 60 12 316
12 l323 -1 244 -379z m-10527 18 c4 -187 5 -328 1 -328 -16 0 -65 35 -91 64
-58 66 -66 145 -24 227 24 48 78 99 103 99 5 0 10 -28 11 -62z m-527 -346 c83
-58 225 -161 316 -229 l167 -123 12 -96 c6 -53 9 -98 6 -101 -12 -12 -607 519
-791 707 l-100 102 120 -77 c66 -43 188 -125 270 -183z m1887 -182 c-80 -126
-282 -414 -428 -611 -115 -155 -126 -167 -161 -172 -82 -13 -163 -19 -163 -13
0 8 148 181 339 396 133 150 458 490 467 490 2 0 -22 -41 -54 -90z m116 -707
c30 -14 102 -87 102 -104 0 -4 -57 -10 -127 -13 -71 -3 -160 -9 -200 -11 l-72
-6 20 40 c49 102 170 143 277 94z m-2508 -284 c0 -27 -45 -81 -87 -106 -59
-34 -140 -37 -197 -7 -38 20 -104 89 -95 99 3 2 83 8 179 13 96 5 181 10 188
11 6 0 12 -4 12 -10z m524 -86 c-176 -203 -268 -308 -349 -398 -110 -123 -351
-373 -384 -400 -34 -27 242 382 428 635 l151 205 82 11 c143 19 138 23 72 -53z
m865 -498 c231 -199 389 -343 551 -503 l165 -163 -105 67 c-180 115 -391 264
-726 513 -29 21 -32 29 -42 116 -7 52 -12 99 -12 104 0 12 2 11 169 -134z
m-132 -473 c68 -51 92 -163 54 -248 -18 -39 -87 -107 -101 -99 -4 2 -7 71 -8
152 -1 81 -5 167 -8 191 -6 38 -5 42 12 35 11 -3 33 -17 51 -31z m3784 -2 c12
0 19 -7 19 -20 0 -17 -7 -20 -42 -20 -58 0 -69 -10 -75 -64 l-6 -46 57 0 c49
0 56 -2 56 -20 0 -18 -7 -20 -55 -20 l-55 0 0 -145 0 -145 -30 0 -30 0 0 145
0 145 -40 0 c-33 0 -40 3 -40 20 0 17 7 20 40 20 40 0 40 0 40 39 0 56 14 86
47 99 39 15 66 20 81 16 8 -2 22 -4 33 -4z m4039 -86 c0 -79 1 -85 17 -73 10
9 41 14 85 14 64 0 72 -2 94 -28 23 -27 24 -35 24 -168 l0 -139 -35 0 -35 0 0
133 c0 90 -4 137 -12 145 -15 15 -92 16 -119 2 -17 -10 -19 -22 -19 -145 l0
-135 -35 0 -35 0 0 233 c0 129 3 237 7 240 3 4 19 7 35 7 l28 0 0 -86z m2140
-154 l0 -240 -35 0 -35 0 0 233 c0 129 3 237 7 240 3 4 19 7 35 7 l28 0 0
-240z m200 0 l0 -240 -35 0 -35 0 0 233 c0 129 3 237 7 240 3 4 19 7 35 7 l28
0 0 -240z m-7376 200 c15 -5 26 -17 26 -28 0 -16 -10 -18 -106 -17 -143 0
-144 -2 -144 -170 0 -103 3 -126 18 -145 24 -29 95 -42 169 -30 32 6 59 10 61
10 2 0 2 -12 0 -27 -3 -26 -7 -28 -69 -36 -78 -11 -165 4 -203 34 -34 27 -46
76 -46 189 0 187 34 227 197 229 39 1 83 -3 97 -9z m1466 -25 c0 -32 -2 -35
-30 -35 -28 0 -30 3 -30 35 0 32 2 35 30 35 28 0 30 -3 30 -35z m1344 -156
l69 -181 38 103 c21 57 51 139 66 182 l28 77 47 0 48 0 0 -220 0 -220 -30 0
-30 0 -2 177 -3 177 -66 -175 -65 -174 -33 0 -33 0 -72 180 -71 180 -3 -182
-2 -183 -30 0 -30 0 0 220 0 220 53 0 52 0 69 -181z m3074 159 c-3 -22 -7 -23
-115 -26 l-113 -3 0 -69 0 -70 106 0 c104 0 105 0 102 -22 -3 -22 -8 -23 -105
-26 l-103 -3 0 -74 0 -75 120 0 120 0 0 -25 0 -25 -155 0 -155 0 0 220 0 220
151 0 c150 0 150 0 147 -22z m-4698 -38 l0 -50 60 0 c53 0 60 -2 60 -20 0 -18
-7 -20 -61 -20 l-61 0 4 -115 c3 -130 6 -135 76 -135 35 0 42 -3 42 -19 0 -24
-44 -35 -99 -26 -73 12 -76 18 -79 164 l-4 131 -39 0 c-32 0 -39 3 -39 20 0
17 7 20 40 20 l40 0 0 50 c0 49 1 50 30 50 29 0 30 -1 30 -50z m2830 0 l0 -50
55 0 c48 0 55 -2 55 -20 0 -18 -7 -20 -55 -20 l-55 0 0 -113 c0 -75 4 -117 12
-125 7 -7 31 -12 55 -12 36 0 43 -3 43 -19 0 -43 -125 -38 -160 6 -17 22 -20
41 -20 144 l0 119 -35 0 c-28 0 -35 4 -35 20 0 16 7 20 35 20 l35 0 0 50 0 50
35 0 35 0 0 -50z m-3700 -70 c0 -29 -2 -30 -43 -30 -24 0 -48 -5 -55 -12 -8
-8 -12 -54 -12 -140 l0 -128 -35 0 -35 0 0 165 0 165 30 0 c20 0 30 -5 30 -15
0 -12 6 -11 33 5 17 11 44 20 60 20 23 0 27 -4 27 -30z m330 5 c18 -17 20 -30
20 -167 l0 -150 -37 3 c-21 2 -59 -1 -84 -5 -52 -9 -120 6 -140 30 -7 9 -13
40 -13 70 -1 80 19 96 129 102 l85 5 0 32 c0 49 -17 57 -109 53 -78 -3 -81 -2
-81 19 0 28 17 32 122 29 68 -2 92 -6 108 -21z m1189 14 c17 -6 36 -19 41 -29
6 -10 10 -82 10 -159 l0 -141 -30 0 -30 0 0 129 c0 152 -4 161 -80 161 -76 0
-80 -9 -80 -161 l0 -129 -30 0 -30 0 0 165 0 165 30 0 c17 0 30 -4 30 -10 0
-5 15 -3 33 5 39 17 93 19 136 4z m384 -3 c15 -8 27 -11 27 -5 0 5 14 9 30 9
l30 0 0 -204 c0 -190 -1 -205 -20 -229 -25 -31 -75 -47 -150 -47 -77 0 -100 8
-100 34 0 20 4 21 89 18 83 -3 90 -2 105 20 9 12 16 39 16 59 l0 37 -42 -15
c-55 -19 -134 -10 -165 19 -21 20 -23 30 -23 138 0 130 9 153 63 169 49 14
109 13 140 -3z m1270 -14 c20 -21 22 -33 25 -168 l4 -146 -44 3 c-24 1 -64 -1
-89 -5 -58 -10 -125 7 -140 36 -6 11 -11 43 -11 71 0 74 20 89 127 95 l85 5 0
32 c0 49 -17 57 -109 53 -78 -3 -81 -2 -81 19 0 28 17 32 123 29 75 -2 91 -5
110 -24z m337 -2 c0 -29 -2 -30 -43 -30 -24 0 -48 -5 -55 -12 -8 -8 -12 -54
-12 -140 l0 -128 -35 0 -35 0 0 165 0 165 30 0 c19 0 30 -5 30 -14 0 -11 8
-10 37 5 21 10 48 19 60 19 19 0 23 -5 23 -30z m602 20 c52 -15 68 -42 68
-117 l0 -63 -110 0 -110 0 0 -34 c0 -64 44 -85 147 -69 l64 9 -3 -25 c-3 -24
-9 -27 -63 -34 -80 -12 -157 5 -185 40 -17 22 -20 41 -20 124 0 54 5 109 11
123 22 47 118 69 201 46z m397 4 c23 -5 31 -12 31 -28 0 -20 -4 -21 -75 -18
-103 6 -105 3 -105 -124 0 -126 4 -130 117 -121 72 5 74 5 71 -16 -7 -48 -185
-48 -229 -1 -22 24 -24 33 -24 139 0 106 2 115 24 139 13 14 33 27 45 29 35 7
112 7 145 1z m1755 -4 c15 -5 26 -17 26 -28 0 -17 -7 -18 -82 -14 -103 6 -108
1 -108 -118 0 -63 4 -92 16 -109 16 -22 21 -23 95 -18 77 5 79 5 79 -18 0 -21
-6 -24 -60 -30 -78 -9 -138 2 -167 31 -21 21 -23 31 -23 137 0 100 3 118 20
140 11 14 30 28 43 30 43 8 136 7 161 -3z m363 -11 c31 -19 43 -52 43 -114 l0
-55 -110 0 -110 0 0 -33 c0 -18 6 -41 13 -51 17 -23 78 -30 145 -18 l53 9 -3
-26 c-3 -23 -9 -27 -53 -34 -60 -9 -138 -1 -176 18 -38 20 -52 70 -47 170 5
95 22 129 71 144 42 13 147 7 174 -10z m776 8 c47 -20 59 -40 65 -112 l5 -65
-112 0 -111 0 0 -39 c0 -22 6 -44 15 -51 21 -18 92 -23 143 -12 43 10 43 10
40 -16 -3 -25 -8 -28 -68 -36 -73 -9 -133 2 -172 33 -22 18 -23 26 -23 134 0
99 3 118 19 136 35 39 138 53 199 28z m451 -16 c19 -20 21 -35 24 -166 l4
-145 -36 0 -36 0 0 133 c0 90 -4 137 -12 145 -7 7 -35 12 -63 12 -28 0 -56 -5
-63 -12 -8 -8 -12 -55 -12 -145 l0 -133 -35 0 -35 0 0 165 0 165 35 0 c19 0
35 -4 35 -9 0 -6 12 -3 28 5 39 22 138 13 166 -15z m365 23 c24 -5 31 -12 31
-29 0 -22 -3 -22 -64 -18 -35 3 -76 3 -90 -1 -26 -6 -26 -6 -26 -116 0 -132 4
-136 112 -127 66 6 68 5 68 -18 0 -21 -6 -24 -60 -30 -73 -8 -133 1 -162 25
-21 16 -23 28 -26 127 -4 126 5 158 50 178 35 15 115 19 167 9z m343 -4 c52
-15 68 -42 68 -117 l0 -63 -110 0 -110 0 0 -34 c0 -64 44 -85 147 -69 l64 9
-3 -25 c-3 -24 -9 -27 -63 -34 -73 -11 -149 4 -182 35 -21 20 -23 30 -23 124
0 57 5 114 11 128 22 47 118 69 201 46z m-7412 -165 l0 -165 -30 0 -30 0 0
165 0 165 30 0 30 0 0 -165z m4610 110 c19 -30 38 -55 41 -55 3 0 23 25 43 55
33 49 40 55 72 55 40 0 42 5 -30 -93 l-48 -67 24 -33 c13 -17 41 -56 62 -84
l38 -53 -36 0 c-31 0 -39 6 -77 60 -23 33 -45 60 -48 60 -3 0 -23 -27 -45 -60
-34 -54 -42 -60 -72 -60 -19 0 -34 2 -34 6 0 3 25 39 55 79 30 41 55 80 55 85
0 6 -25 45 -55 86 l-55 74 37 0 c35 0 41 -4 73 -55z"/>
<path d="M7680 5891 l0 -761 290 0 c316 0 454 11 536 41 62 23 109 72 124 129
7 26 10 221 8 592 l-3 553 -27 46 c-43 73 -121 115 -260 140 -35 6 -199 13
-365 16 l-303 5 0 -761z"/>
<path d="M7883 3780 c-18 -7 -23 -17 -23 -48 0 -50 14 -62 71 -62 74 0 79 5
79 66 l0 54 -52 -1 c-29 0 -63 -4 -75 -9z"/>
<path d="M9492 3908 c-8 -8 -12 -48 -12 -113 0 -65 4 -105 12 -113 7 -7 38
-12 69 -12 82 0 89 10 89 125 0 115 -7 125 -89 125 -31 0 -62 -5 -69 -12z"/>
<path d="M10723 3780 c-18 -7 -23 -17 -23 -48 0 -50 14 -62 71 -62 74 0 79 5
79 66 l0 54 -52 -1 c-29 0 -63 -4 -75 -9z"/>
<path d="M11696 3904 c-9 -8 -16 -31 -16 -50 l0 -34 80 0 80 0 0 31 c0 56 -15
69 -75 69 -35 0 -59 -5 -69 -16z"/>
<path d="M14182 3908 c-7 -7 -12 -29 -12 -50 l0 -38 81 0 82 0 -6 41 c-3 23
-11 46 -19 50 -20 13 -112 11 -126 -3z"/>
<path d="M14982 3908 c-7 -7 -12 -29 -12 -50 l0 -38 75 0 75 0 0 38 c0 21 -5
43 -12 50 -16 16 -110 16 -126 0z"/>
<path d="M16146 3904 c-9 -8 -16 -31 -16 -50 l0 -34 80 0 80 0 0 31 c0 56 -15
69 -75 69 -35 0 -59 -5 -69 -16z"/>
</g>
</svg>
